<?xml version="1.0" encoding="UTF-8" standalone="no"?>
<svg
   xmlns:dc="http://purl.org/dc/elements/1.1/"
   xmlns:cc="http://creativecommons.org/ns#"
   xmlns:rdf="http://www.w3.org/1999/02/22-rdf-syntax-ns#"
   xmlns:svg="http://www.w3.org/2000/svg"
   xmlns="http://www.w3.org/2000/svg"
   xmlns:sodipodi="http://sodipodi.sourceforge.net/DTD/sodipodi-0.dtd"
   xmlns:inkscape="http://www.inkscape.org/namespaces/inkscape"
   width="400"
   height="400"
   viewBox="0 0 400 400"
   fill="none"
   version="1.1"
   id="svg12"
   sodipodi:docname="logo1.svg"
   inkscape:version="1.0.1 (3bc2e813f5, 2020-09-07)">
  <metadata
     id="metadata18">
    <rdf:RDF>
      <cc:Work
         rdf:about="">
        <dc:format>image/svg+xml</dc:format>
        <dc:type
           rdf:resource="http://purl.org/dc/dcmitype/StillImage" />
        <dc:title></dc:title>
      </cc:Work>
    </rdf:RDF>
  </metadata>
  <defs
     id="defs16" />
  <sodipodi:namedview
     pagecolor="#ffffff"
     bordercolor="#666666"
     borderopacity="1"
     objecttolerance="10"
     gridtolerance="10"
     guidetolerance="10"
     inkscape:pageopacity="0"
     inkscape:pageshadow="2"
     inkscape:window-width="1920"
     inkscape:window-height="1017"
     id="namedview14"
     showgrid="false"
     inkscape:zoom="0.74688154"
     inkscape:cx="557.94975"
     inkscape:cy="243.23584"
     inkscape:window-x="-8"
     inkscape:window-y="-8"
     inkscape:window-maximized="1"
     inkscape:current-layer="svg12"
     inkscape:document-rotation="0"
     inkscape:showpageshadow="false"
     inkscape:snap-bbox="true"
     inkscape:snap-intersection-paths="false"
     inkscape:snap-global="true">
    <inkscape:grid
       type="xygrid"
       id="grid835" />
  </sodipodi:namedview>
  <g
     id="g844"
     transform="matrix(1.3333333,0,0,1.3333333,-340.02753,-369.95675)">
    <circle
       cx="406"
       cy="427"
       r="150"
       fill="#2ba500"
       id="circle4" />
    <path
       d="m 441.574,488.62 c -1.8,0 -3.12,-0.54 -3.96,-1.62 -0.84,-0.96 -1.38,-2.04 -1.62,-3.24 -0.12,-1.2 -0.18,-1.98 -0.18,-2.34 v -9.54 c 0,-5.16 0.48,-10.38 1.44,-15.66 0.96,-5.4 1.38,-11.22 1.26,-17.46 0,-1.08 -0.42,-2.28 -1.26,-3.6 -0.72,-1.44 -1.8,-2.16 -3.24,-2.16 -2.28,0 -4.62,-0.24 -7.02,-0.72 -2.28,-0.6 -3.42,-2.22 -3.42,-4.86 0,-2.64 0.9,-4.56 2.7,-5.76 1.92,-1.32 4.74,-2.22 8.46,-2.7 2.52,-0.84 4.14,-2.4 4.86,-4.68 0.72,-2.28 1.08,-4.2 1.08,-5.76 V 374.5 c 0,-1.8 0,-3.72 0,-5.76 0.12,-2.04 0.6,-3.78 1.44,-5.22 0.96,-1.44 2.7,-2.16 5.22,-2.16 1.92,0 3.66,0.72 5.22,2.16 1.56,1.32 2.34,2.82 2.34,4.5 0,3.36 -0.06,7.26 -0.18,11.7 -0.12,4.32 -0.24,8.7 -0.36,13.14 -0.12,4.32 -0.18,8.28 -0.18,11.88 0,3.48 0.06,6.36 0.18,8.64 0.24,2.16 0.6,3.36 1.08,3.6 1.2,0.36 3.36,0.6 6.48,0.72 3.24,0.12 6.84,0.24 10.8,0.36 3.96,0 7.5,0 10.62,0 6.72,0 12.12,0 16.2,0 4.08,0 7.2,0 9.36,0 2.28,-0.12 3.96,-0.18 5.04,-0.18 1.08,0 1.98,0 2.7,0 0,-0.72 0.12,-2.34 0.36,-4.86 0.24,-2.52 0.54,-5.28 0.9,-8.28 0.36,-3 0.6,-5.46 0.72,-7.38 0.6,-4.2 1.14,-8.4 1.62,-12.6 0.6,-4.2 0.96,-7.14 1.08,-8.82 1.08,-7.8 3.9,-11.7 8.46,-11.7 1.44,0 2.94,0.36 4.5,1.08 1.56,0.6 2.04,2.82 1.44,6.66 -0.72,4.92 -1.44,9.3 -2.16,13.14 -0.72,3.84 -1.38,7.62 -1.98,11.34 -0.48,3.6 -0.72,7.62 -0.72,12.06 v 8.46 c 3.48,0.36 5.94,1.32 7.38,2.88 1.44,1.56 2.16,3.18 2.16,4.86 0,2.76 -0.72,4.68 -2.16,5.76 -1.32,1.08 -2.82,1.74 -4.5,1.98 -1.68,0.24 -3,0.6 -3.96,1.08 v 30.6 c 0,1.68 -0.12,3.84 -0.36,6.48 -0.12,2.52 -0.66,4.74 -1.62,6.66 -0.84,1.92 -2.34,2.88 -4.5,2.88 -2.16,0 -3.78,-0.48 -4.86,-1.44 -0.96,-0.96 -1.74,-2.22 -2.34,-3.78 -0.72,-1.92 -1.14,-4.08 -1.26,-6.48 -0.12,-2.52 -0.18,-4.8 -0.18,-6.84 0,-3.84 0.12,-7.68 0.36,-11.52 0.36,-3.84 0.54,-7.62 0.54,-11.34 0,-2.4 -0.18,-4.08 -0.54,-5.04 -0.36,-1.08 -1.2,-1.62 -2.52,-1.62 -1.8,0 -4.62,-0.06 -8.46,-0.18 -3.84,-0.12 -7.98,-0.18 -12.42,-0.18 -4.32,-0.12 -8.34,-0.24 -12.06,-0.36 -3.72,-0.12 -6.3,-0.18 -7.74,-0.18 h -4.5 c -3.72,0 -6.54,0.24 -8.46,0.72 -1.92,0.36 -3.3,1.2 -4.14,2.52 -0.72,1.2 -1.32,3.12 -1.8,5.76 -0.12,3.6 -0.24,7.38 -0.36,11.34 -0.12,3.96 -0.36,7.98 -0.72,12.06 -0.24,4.56 -0.54,8.76 -0.9,12.6 -0.36,3.84 -1.2,6.9 -2.52,9.18 -1.32,2.16 -3.6,3.24 -6.84,3.24 z"
       fill="#000000"
       id="path6" />
    <path
       d="m 348.521,447.4 c 0,-3.285 0.797,-6.715 2.392,-10.288 1.627,-3.605 6.029,-8.007 13.207,-13.207 -1.595,-1.818 -3.27,-4.051 -5.024,-6.699 -1.723,-2.68 -2.584,-5.981 -2.584,-9.905 0,-3.828 1.324,-7.178 3.971,-10.049 2.648,-2.871 6.907,-4.307 12.777,-4.307 3.605,0 7.082,0.973 10.431,2.919 3.382,1.914 5.073,5.487 5.073,10.719 0,3.382 -1.165,6.572 -3.493,9.57 -2.297,2.999 -5.392,5.966 -9.284,8.901 l 15.026,17.944 c 1.276,-1.34 2.616,-3.206 4.019,-5.599 1.404,-2.392 2.297,-4.354 2.68,-5.885 0.383,-1.468 1.196,-2.01 2.44,-1.627 l 3.637,1.148 c 1.372,0.447 1.834,1.308 1.388,2.584 -0.957,2.871 -2.393,5.758 -4.307,8.661 -1.914,2.903 -3.589,5.073 -5.024,6.508 l 9.618,11.437 c 1.563,1.85 1.276,2.775 -0.861,2.775 h -4.833 c -1.851,0 -3.35,-0.686 -4.499,-2.058 l -5.263,-6.22 c -2.967,2.903 -6.093,5.247 -9.379,7.034 -3.286,1.786 -7.624,2.68 -13.016,2.68 -5.487,0 -10.049,-1.58 -13.685,-4.738 -3.605,-3.158 -5.407,-7.257 -5.407,-12.298 z m 9.331,-0.095 c 0,2.935 0.893,5.375 2.679,7.321 1.819,1.914 4.514,2.871 8.087,2.871 2.68,0 5.583,-0.845 8.709,-2.536 3.126,-1.691 5.742,-3.685 7.848,-5.982 L 369.001,429.6 c -4.881,3.732 -7.959,6.795 -9.235,9.187 -1.276,2.361 -1.914,5.2 -1.914,8.518 z m 7.273,-40.435 c 0,2.616 0.702,5.009 2.105,7.178 1.436,2.137 2.728,3.924 3.876,5.359 3.51,-2.998 5.886,-5.407 7.13,-7.225 1.276,-1.819 1.914,-3.781 1.914,-5.886 0,-1.787 -0.622,-3.35 -1.866,-4.69 -1.212,-1.339 -3.094,-2.009 -5.646,-2.009 -2.361,0 -4.211,0.686 -5.551,2.057 -1.308,1.372 -1.962,3.111 -1.962,5.216 z"
       fill="#000000"
       id="path8" />
    <path
       d="m 274.364,483.04 c -2.28,0 -3.78,-1.8 -4.5,-5.4 -0.84,-0.72 -1.62,-2.76 -2.34,-6.12 -0.72,-3.36 -1.32,-7.5 -1.8,-12.42 -0.36,-4.92 -0.54,-10.02 -0.54,-15.3 0,-1.8 0,-3.54 0,-5.22 0.12,-1.8 0.24,-3.54 0.36,-5.22 -4.68,-1.8 -7.02,-4.02 -7.02,-6.66 0,-2.28 0.42,-3.9 1.26,-4.86 0.96,-1.08 2.1,-1.92 3.42,-2.52 1.32,-0.6 2.64,-1.32 3.96,-2.16 0.24,-1.44 0.6,-3.84 1.08,-7.2 0.6,-3.48 1.2,-7.26 1.8,-11.34 0.72,-4.2 1.44,-8.1 2.16,-11.7 0.72,-3.72 1.44,-6.54 2.16,-8.46 0.48,-2.28 1.86,-4.56 4.14,-6.84 2.28,-2.28 5.94,-4.2 10.98,-5.76 5.04,-1.68 11.94,-2.52 20.7,-2.52 h 7.92 c 4.08,0 7.98,0.18 11.7,0.54 3.84,0.36 7.02,1.14 9.54,2.34 2.52,1.08 3.78,2.94 3.78,5.58 0,1.32 -0.42,2.46 -1.26,3.42 -0.72,0.96 -1.56,1.44 -2.52,1.44 h -27 c -0.36,0 -1.56,0.12 -3.6,0.36 -1.92,0.12 -4.2,0.36 -6.84,0.72 -2.52,0.36 -4.98,0.84 -7.38,1.44 -2.28,0.6 -4.02,1.38 -5.22,2.34 -1.56,1.2 -2.94,3.84 -4.14,7.92 -1.08,3.96 -1.92,8.58 -2.52,13.86 -0.48,5.16 -0.72,10.2 -0.72,15.12 1.08,-0.12 2.94,-0.24 5.58,-0.36 2.76,-0.12 5.76,-0.24 9,-0.36 3.24,-0.12 6.3,-0.18 9.18,-0.18 3,-0.12 5.34,-0.18 7.02,-0.18 h 7.2 c 2.76,0 4.62,0.6 5.58,1.8 1.08,1.2 1.62,2.82 1.62,4.86 0,4.08 -2.28,6.3 -6.84,6.66 l -32.04,1.98 c -3.36,0.12 -5.64,0.6 -6.84,1.44 -1.08,0.72 -1.8,1.62 -2.16,2.7 0,4.32 0.36,9.48 1.08,15.48 0.72,6 1.5,13.02 2.34,21.06 -0.84,3 -2.04,5.4 -3.6,7.2 -1.56,1.68 -3.12,2.52 -4.68,2.52 z"
       fill="#000000"
       id="path10" />
  </g>
</svg>
