<svg width="80" height="80" viewBox="0 0 80 80" fill="none" xmlns="http://www.w3.org/2000/svg">
<circle cx="40" cy="40" r="40" fill="#D9D9D9"/>
<path d="M14.6169 62.4653L14.5197 64.8029L19.6626 64.589L14.7335 59.66L14.6169 62.4653Z" fill="black"/>
<path d="M33.6895 64.0058L15.3168 45.6331M33.6895 64.0058L63.7673 34.6699M33.6895 64.0058L19.6626 64.589M15.3168 45.6331L45.0236 15.9262M15.3168 45.6331L14.7335 59.66M47.7021 13.2477L54.0331 6.91675C62.9444 11.5053 67.0002 15.7631 72.8893 25.7729L66.4792 32.0248M47.7021 13.2477L66.4792 32.0248M47.7021 13.2477L45.0236 15.9262M66.4792 32.0248L63.7673 34.6699M63.7673 34.6699L45.0236 15.9262M14.7335 59.66L14.6169 62.4653L14.5197 64.8029L19.6626 64.589M14.7335 59.66L19.6626 64.589" stroke="black"/>
</svg>
